<?xml version="1.0" standalone="no"?>
<!DOCTYPE svg PUBLIC "-//W3C//DTD SVG 20010904//EN"
 "http://www.w3.org/TR/2001/REC-SVG-20010904/DTD/svg10.dtd">
<svg version="1.0" xmlns="http://www.w3.org/2000/svg"
 width="964.000000pt" height="778.000000pt" viewBox="0 0 964.000000 778.000000"
 preserveAspectRatio="xMidYMid meet">

<g transform="translate(0.000000,778.000000) scale(0.100000,-0.100000)"
fill="#000000" stroke="none">
<path d="M0 3890 l0 -3890 4820 0 4820 0 0 3890 0 3890 -4820 0 -4820 0 0
-3890z m4980 2102 c209 -54 431 -170 568 -297 34 -32 61 -60 58 -62 -2 -2 -53
20 -112 50 -133 66 -301 129 -443 165 -93 23 -125 27 -266 26 -148 0 -166 -2
-239 -27 -142 -50 -250 -136 -293 -234 -26 -58 -23 -202 6 -274 51 -133 155
-252 307 -355 l81 -55 222 1 222 1 -7 -28 c-4 -15 -15 -52 -26 -82 -10 -30
-18 -59 -18 -64 0 -17 146 1 226 28 133 45 224 118 267 214 31 70 29 203 -4
296 -48 133 -136 243 -282 356 -49 38 -86 69 -82 69 12 0 123 -68 180 -110
310 -229 447 -539 336 -764 -39 -79 -100 -136 -196 -182 -114 -55 -176 -63
-471 -63 -213 0 -263 2 -267 13 -8 20 2 26 42 26 46 0 32 10 -59 45 -175 66
-347 174 -467 292 -41 41 -73 76 -71 79 3 2 47 -21 99 -53 141 -85 382 -194
396 -179 3 3 2 20 -3 37 -8 27 -24 39 -113 85 -137 71 -219 131 -311 223 -85
86 -140 165 -178 254 -22 53 -26 77 -27 167 0 93 3 111 26 160 62 132 191 221
386 264 51 12 109 15 233 12 143 -4 181 -8 280 -34z m-22 -245 c190 -301 203
-526 36 -653 -19 -15 -37 -25 -39 -22 -3 3 2 21 10 41 8 20 15 53 15 74 0 42
-30 111 -61 139 -20 18 -20 18 -14 -41 7 -76 -8 -110 -50 -110 -29 0 -42 15
-61 70 -6 18 -8 16 -21 -14 -17 -41 -10 -93 19 -133 27 -39 4 -37 -58 5 -57
38 -94 101 -94 162 0 22 11 70 24 107 23 65 99 192 132 219 15 12 16 10 9 -21
-4 -19 -8 -59 -8 -89 0 -81 42 -102 101 -48 44 40 54 144 27 284 -22 117 -22
117 33 30z m169 -743 c3 -9 2 -24 -4 -33 -9 -14 -40 -16 -229 -19 -120 -1
-229 0 -241 3 -18 4 -23 13 -23 35 l0 30 245 0 c218 0 246 -2 252 -16z m-157
-459 c0 -20 -5 -79 -11 -131 -6 -53 -9 -97 -7 -99 2 -2 28 5 58 15 83 29 204
26 326 -7 55 -14 135 -31 179 -37 52 -8 74 -14 62 -19 -35 -13 -154 -7 -232
13 -139 35 -325 22 -383 -28 -18 -15 -24 -45 -44 -232 -19 -174 -22 -257 -20
-435 2 -143 7 -224 15 -233 6 -8 31 -24 56 -37 l46 -23 75 20 c55 14 110 20
210 20 140 1 220 -11 347 -53 l62 -20 31 33 c36 39 39 -11 -26 527 -25 206
-43 382 -41 390 1 9 10 -4 18 -29 13 -37 21 -45 50 -53 19 -5 37 -12 41 -16 4
-4 17 -90 28 -191 10 -102 31 -291 45 -420 14 -129 23 -244 20 -255 -3 -11
-22 -39 -43 -62 l-37 -42 -70 9 c-38 5 -245 29 -460 54 l-390 45 -455 -54
-455 -54 -42 47 c-31 35 -43 56 -43 79 0 33 76 759 85 820 5 28 10 32 45 38
35 6 41 11 51 46 15 47 32 52 24 7 -3 -18 -28 -215 -55 -437 l-49 -403 32 -39
c20 -25 37 -37 47 -33 49 19 246 63 311 69 84 7 254 -8 326 -30 46 -14 49 -14
98 14 48 27 50 31 56 79 27 214 -14 831 -57 856 -85 50 -253 61 -385 26 -74
-20 -196 -25 -234 -11 -13 5 2 10 50 15 39 3 120 20 180 36 150 41 285 40 386
-4 14 -6 14 6 3 116 -7 68 -13 129 -13 136 -1 9 24 12 94 12 l95 0 0 -35z
m-395 -1090 c117 -21 145 -38 45 -28 -132 14 -297 7 -390 -16 -47 -11 -96 -23
-110 -26 l-25 -6 25 15 c38 23 139 55 205 65 93 13 155 12 250 -4z m928 -10
c32 -8 79 -26 105 -41 26 -14 38 -22 27 -19 -143 45 -326 60 -505 42 -58 -5
-69 -5 -50 4 88 39 301 46 423 14z m-539 -726 c57 -16 121 -80 147 -147 17
-47 20 -73 17 -147 -3 -79 -8 -98 -34 -145 -38 -68 -91 -106 -167 -121 -119
-24 -223 25 -274 129 -23 48 -28 69 -28 142 0 117 18 174 74 230 26 25 62 51
81 57 46 14 135 16 184 2z m-1744 -36 c0 -34 -1 -35 -18 -20 -12 11 -36 17
-70 17 l-52 0 0 -245 c0 -209 2 -246 15 -251 34 -14 -2 -24 -81 -24 -76 0
-101 8 -74 25 6 4 10 98 10 251 l0 244 -52 0 c-34 0 -58 -6 -70 -17 -17 -15
-18 -14 -18 20 l0 37 205 0 205 0 0 -37z m360 31 c0 -3 -7 -12 -15 -20 -12
-13 -15 -48 -15 -192 1 -201 8 -248 45 -279 49 -43 142 -26 173 31 25 45 32
433 8 442 -32 12 -15 24 36 24 48 0 50 -1 35 -17 -13 -15 -16 -54 -19 -228 -3
-236 -10 -259 -78 -300 -49 -28 -159 -27 -215 2 -93 48 -104 84 -105 327 0
168 -2 190 -17 202 -15 11 -5 13 75 14 50 0 92 -3 92 -6z m880 -29 c0 -36 -13
-47 -24 -20 -4 11 -21 15 -66 15 l-60 0 0 -239 c0 -200 2 -241 15 -251 29 -24
14 -30 -75 -30 -83 0 -112 9 -75 24 13 5 15 42 15 251 l0 245 -59 0 c-44 0
-60 -4 -65 -16 -9 -24 -26 -6 -26 27 l0 29 210 0 210 0 0 -35z m1213 19 c59
-20 94 -61 103 -119 10 -71 -3 -115 -47 -157 -21 -20 -39 -42 -39 -49 0 -25
93 -189 111 -194 44 -14 13 -25 -72 -25 -84 0 -90 1 -84 19 3 12 -10 51 -37
105 -42 85 -43 86 -80 86 l-38 0 0 -84 c0 -62 4 -87 15 -96 29 -24 14 -30 -75
-30 -55 0 -90 4 -90 10 0 6 7 13 15 16 13 5 15 43 15 252 0 214 -2 248 -17
264 -16 17 -11 18 129 18 106 0 157 -4 191 -16z m517 6 c0 -5 -5 -10 -10 -10
-7 0 -9 -85 -8 -247 l3 -248 84 -3 c62 -2 89 1 107 13 32 21 34 20 34 -20 l0
-35 -190 0 c-174 0 -212 5 -180 25 6 4 10 102 10 261 0 163 -4 254 -10 254 -5
0 -10 5 -10 10 0 6 35 10 85 10 50 0 85 -4 85 -10z m465 -9 c-4 -13 12 -56 46
-123 l52 -103 52 110 c37 77 49 114 42 123 -7 9 3 12 47 12 55 0 75 -13 36
-23 -14 -4 -41 -49 -90 -152 l-70 -148 0 -97 c0 -75 4 -100 15 -110 29 -24 14
-30 -75 -30 -55 0 -90 4 -90 10 0 6 7 13 15 16 12 5 15 27 15 115 l0 109 -66
133 c-36 72 -77 142 -92 154 l-27 23 98 0 c93 0 98 -1 92 -19z"/>
<path d="M4832 2675 c-54 -24 -76 -86 -77 -220 0 -66 6 -129 14 -158 26 -91
107 -125 170 -71 46 39 64 112 59 243 -4 121 -23 172 -72 202 -37 22 -50 23
-94 4z"/>
<path d="M5495 2668 c-3 -8 -4 -66 -3 -129 l3 -114 41 -3 c58 -4 100 32 110
94 8 54 -7 113 -36 139 -26 23 -108 33 -115 13z"/>
</g>
</svg>
