<?xml version="1.0" encoding="utf-8"?>
<!-- Generator: Adobe Illustrator 24.3.0, SVG Export Plug-In . SVG Version: 6.00 Build 0)  -->
<svg version="1.1" id="Layer_1" xmlns="http://www.w3.org/2000/svg" xmlns:xlink="http://www.w3.org/1999/xlink" x="0px" y="0px"
	 viewBox="0 0 3000 3000" style="enable-background:new 0 0 3000 3000;" xml:space="preserve">
<style type="text/css">
	.st0{fill:#286DB6;}
	.st1{fill:#010101;}
	.st2{enable-background:new    ;}
</style>
<g id="Layer_1_1_">
	<path class="st0" d="M2181,333.1v1296.5c0,0-301.7,66.3-669.3,503.3v-843c58.2-10.6,102.3-61.6,102.3-122.8
		c0-64.8-49.4-118.2-112.7-124.2l0-1.1V561.7C1501.3,561.7,1830.8,364.3,2181,333.1z"/>
	<path class="st0" d="M1477,561.7v480.1l0,1.1c-63.2,6.1-112.7,59.4-112.7,124.2c0,61.2,44.1,112.2,102.3,122.8v843
		c-367.6-436.9-669.3-503.3-669.3-503.3V333.1C1147.6,364.3,1477,561.7,1477,561.7z"/>
	<path class="st1" d="M2285,485.6h111v1341c0,0-326-54.5-624.2,195.2c0,0,157.8-247.9,521.9-331.2L2285,485.6z"/>
	<path class="st1" d="M2463.6,695.4h92.7v1352c0,0-370.6-96.7-599.2-25.6c0,0,132-112.7,506.5-112.7V695.4z"/>
	<path class="st1" d="M715,485.6H604v1341c0,0,326-54.5,624.2,195.2c0,0-157.8-247.9-521.9-331.2L715,485.6z"/>
	<path class="st1" d="M536.4,695.4h-92.7v1352c0,0,370.5-96.7,599.2-25.6c0,0-132-112.7-506.5-112.7V695.4z"/>
	<g class="st2">
		<path class="st1" d="M744.8,2339h-57.2v-49.7h169.1v49.7h-57.2v298.5h-54.7V2339z"/>
		<path class="st1" d="M929.8,2554.9v-265.6h54.7v269.6c0,24.9,10.4,33.8,27.9,33.8c17.4,0,27.9-9,27.9-33.8v-269.6h52.7v265.6
			c0,55.7-27.9,87.6-81.6,87.6S929.8,2610.6,929.8,2554.9z"/>
		<path class="st1" d="M1223.3,2339h-57.2v-49.7h169.1v49.7h-57.2v298.5h-54.7V2339z"/>
		<path class="st1" d="M1404.4,2554.9v-183.1c0-55.7,29.3-87.6,83.1-87.6c53.7,0,83.1,31.8,83.1,87.6v183.1
			c0,55.7-29.3,87.6-83.1,87.6C1433.8,2642.4,1404.4,2610.6,1404.4,2554.9z M1515.8,2558.4v-190c0-24.9-10.9-34.3-28.4-34.3
			s-28.4,9.5-28.4,34.3v190c0,24.9,10.9,34.3,28.4,34.3S1515.8,2583.2,1515.8,2558.4z"/>
		<path class="st1" d="M1656.1,2289.2h81.1c56.7,0,81.1,26.4,81.1,80.1v21.4c0,35.8-11.4,58.7-35.8,68.6v1
			c27.4,8.5,36.3,34.3,36.3,73.6v61.2c0,16.9,0.5,29.3,6,42.3H1769c-3-9-5-14.4-5-42.8V2531c0-32.3-9.5-42.8-34.3-42.8h-18.9v149.2
			h-54.7V2289.2z M1730.7,2438.5c20.4,0,32.8-9,32.8-36.8v-26.9c0-24.9-8.5-35.8-27.9-35.8h-24.9v99.5H1730.7z"/>
		<path class="st1" d="M1905.3,2289.2h54.7v298.5h90v49.7h-144.8V2289.2z"/>
		<path class="st1" d="M2131.7,2489.2l-66.2-200h58.2l37.3,127.8h1l37.3-127.8h53.2l-66.2,200v148.2h-54.7V2489.2z"/>
	</g>
	<path class="st0" d="M3877,364.4v1450.9c0,0-337.6,74.2-749,563.2v-943.3c65.1-11.9,114.5-68.9,114.5-137.4
		c0-72.6-55.3-132.2-126.1-139l0-1.2V620.2C3116.4,620.2,3485.1,399.3,3877,364.4z"/>
</g>
</svg>
